<svg xmlns="http://www.w3.org/2000/svg" viewBox="0 0 1920 1080">
  <defs>
    <!-- Background Gradients -->
    <linearGradient id="bgGrad" x1="0%" y1="0%" x2="100%" y2="100%">
      <stop offset="0%" stop-color="#0b0b0f" />
      <stop offset="50%" stop-color="#1e1b4b" />
      <stop offset="100%" stop-color="#0b0b0f" />
    </linearGradient>
    
    <!-- Spotlight Gradients -->
    <linearGradient id="lightPurple" x1="50%" y1="0%" x2="50%" y2="100%">
      <stop offset="0%" stop-color="#a855f7" stop-opacity="0.15" />
      <stop offset="100%" stop-color="#a855f7" stop-opacity="0" />
    </linearGradient>
    <linearGradient id="lightYellow" x1="50%" y1="0%" x2="50%" y2="100%">
      <stop offset="0%" stop-color="#fbbf24" stop-opacity="0.15" />
      <stop offset="100%" stop-color="#fbbf24" stop-opacity="0" />
    </linearGradient>

    <!-- Desk Gradient -->
    <linearGradient id="deskGrad" x1="0%" y1="0%" x2="0%" y2="100%">
      <stop offset="0%" stop-color="#1e293b" />
      <stop offset="10%" stop-color="#0f172a" />
      <stop offset="100%" stop-color="#020617" />
    </linearGradient>

    <!-- Glow Filter for Screens -->
    <filter id="glow" x="-20%" y="-20%" width="140%" height="140%">
      <feGaussianBlur stdDeviation="15" result="blur" />
      <feComposite in="SourceGraphic" in2="blur" operator="over" />
    </filter>
    <filter id="glow-strong" x="-30%" y="-30%" width="160%" height="160%">
      <feGaussianBlur stdDeviation="25" result="blur" />
      <feComposite in="SourceGraphic" in2="blur" operator="over" />
    </filter>
  </defs>

  <!-- 1. Studio Background -->
  <rect width="1920" height="1080" fill="url(#bgGrad)" />

  <!-- Spotlights -->
  <polygon points="400,-100 -200,1080 1000,1080" fill="url(#lightPurple)" />
  <polygon points="1520,-100 920,1080 2120,1080" fill="url(#lightYellow)" />

  <!-- 2. Studio Screens & Monitors -->
  <!-- Left Screen (Yin / Purple) -->
  <g transform="translate(150, 200)">
    <rect x="0" y="0" width="450" height="280" rx="15" fill="#000" stroke="#a855f7" stroke-width="4" filter="url(#glow)" />
    <rect x="20" y="20" width="410" height="240" rx="5" fill="#111" />
    <text x="225" y="120" fill="#a855f7" font-family="sans-serif" font-size="40" font-weight="bold" text-anchor="middle" opacity="0.8">ON AIR</text>
    <!-- Sound wave graphic -->
    <path d="M 100 200 L 120 150 L 140 180 L 160 100 L 180 190 L 200 130 L 220 210 L 240 160 L 260 180 L 280 120 L 300 190 L 320 140 L 340 170" fill="none" stroke="#a855f7" stroke-width="6" stroke-linecap="round" stroke-linejoin="round" />
  </g>

  <!-- Right Screen (Yang / Yellow) -->
  <g transform="translate(1320, 250)">
    <rect x="0" y="0" width="450" height="280" rx="15" fill="#000" stroke="#fbbf24" stroke-width="4" filter="url(#glow)" />
    <rect x="20" y="20" width="410" height="240" rx="5" fill="#111" />
    <text x="225" y="100" fill="#fbbf24" font-family="sans-serif" font-size="30" font-weight="bold" text-anchor="middle" opacity="0.8">LIVE CHAT</text>
    <rect x="50" y="140" width="300" height="15" rx="7" fill="#333" />
    <rect x="50" y="170" width="200" height="15" rx="7" fill="#333" />
    <rect x="50" y="200" width="250" height="15" rx="7" fill="#333" />
  </g>

  <!-- Center Top Screen (Logo) -->
  <g transform="translate(710, 80)">
    <rect x="0" y="0" width="500" height="150" rx="10" fill="#000" stroke="#334155" stroke-width="3" />
    <text x="250" y="90" fill="#fff" font-family="sans-serif" font-size="50" font-weight="900" letter-spacing="5" text-anchor="middle">APPVERZE<tspan fill="#fbbf24">.</tspan></text>
  </g>

  <!-- 3. Human Avatar -->
  <g transform="translate(960, 550)">
    <!-- Shoulders / Body -->
    <path d="M -250 450 C -250 150, -120 100, 0 100 C 120 100, 250 150, 250 450" fill="#1e293b" stroke="#334155" stroke-width="4" />
    
    <!-- Jacket/Shirt Accents -->
    <path d="M -100 450 L 0 250 L 100 450" fill="#0f172a" />
    <path d="M -50 450 L 0 300 L 50 450" fill="#fbbf24" opacity="0.8" />

    <!-- Neck -->
    <rect x="-30" y="50" width="60" height="60" rx="10" fill="#cbd5e1" />

    <!-- Head -->
    <circle cx="0" cy="-20" r="90" fill="#e2e8f0" />
    
    <!-- Hair (Stylized modern cut) -->
    <path d="M -90 -20 C -90 -120, -50 -140, 0 -140 C 60 -140, 90 -100, 90 -20 C 90 -50, 60 -80, 0 -80 C -50 -80, -90 -50, -90 -20 Z" fill="#0f172a" />
    <path d="M -100 -20 C -100 -150, 100 -150, 100 -20 C 100 -70, 50 -100, 0 -100 C -50 -100, -100 -70, -100 -20" fill="#1e293b" />

    <!-- Headphones -->
    <path d="M -100 -20 A 100 100 0 0 1 100 -20" fill="none" stroke="#000" stroke-width="18" />
    <!-- Earpads -->
    <rect x="-115" y="-40" width="30" height="70" rx="15" fill="#111" />
    <rect x="85" y="-40" width="30" height="70" rx="15" fill="#111" />
    <!-- Headphone Glow Accents -->
    <circle cx="-100" cy="-5" r="5" fill="#a855f7" filter="url(#glow)" />
    <circle cx="100" cy="-5" r="5" fill="#fbbf24" filter="url(#glow)" />
  </g>

  <!-- 4. Studio Desk -->
  <path d="M 0 880 Q 960 820 1920 880 L 1920 1080 L 0 1080 Z" fill="url(#deskGrad)" />
  <!-- Desk Edge Highlight -->
  <path d="M 0 880 Q 960 820 1920 880" fill="none" stroke="#334155" stroke-width="8" />
  <path d="M 0 880 Q 960 820 1920 880" fill="none" stroke="#a855f7" stroke-width="2" opacity="0.5" filter="url(#glow)" />

  <!-- 5. Broadcast Microphone -->
  <g transform="translate(750, 850)">
    <!-- Boom Arm -->
    <path d="M 0 150 L 50 -50 L 150 -120" fill="none" stroke="#111" stroke-width="16" stroke-linecap="round" stroke-linejoin="round" />
    <path d="M 0 150 L 50 -50 L 150 -120" fill="none" stroke="#333" stroke-width="8" stroke-linecap="round" stroke-linejoin="round" />
    
    <!-- Mic Shockmount & Head -->
    <g transform="translate(150, -120) rotate(35)">
      <!-- Shockmount rings -->
      <circle cx="0" cy="0" r="40" fill="none" stroke="#475569" stroke-width="4" />
      <circle cx="0" cy="-20" r="40" fill="none" stroke="#475569" stroke-width="4" />
      <!-- Mic Body -->
      <rect x="-20" y="-60" width="40" height="100" rx="20" fill="#0f172a" stroke="#334155" stroke-width="3" />
      <!-- Mic Grill -->
      <rect x="-16" y="-56" width="32" height="40" rx="16" fill="#1e293b" />
      <path d="M -16 -36 L 16 -36 M -16 -26 L 16 -26 M -16 -46 L 16 -46" stroke="#0f172a" stroke-width="2" />
      <!-- On-Air Light on Mic -->
      <circle cx="0" cy="20" r="4" fill="#ef4444" filter="url(#glow)" />
    </g>
  </g>

  <!-- Desk Props (Keyboard/Mixer hint) -->
  <g transform="translate(1050, 920) rotate(-10)">
    <rect x="0" y="0" width="300" height="100" rx="10" fill="#111" stroke="#333" stroke-width="2" />
    <!-- Mixer sliders/buttons -->
    <rect x="30" y="20" width="10" height="60" rx="5" fill="#222" />
    <circle cx="35" cy="40" r="8" fill="#fbbf24" />
    
    <rect x="70" y="20" width="10" height="60" rx="5" fill="#222" />
    <circle cx="75" cy="60" r="8" fill="#a855f7" />
    
    <rect x="110" y="20" width="10" height="60" rx="5" fill="#222" />
    <circle cx="115" cy="30" r="8" fill="#cbd5e1" />

    <circle cx="200" cy="50" r="25" fill="#222" stroke="#444" stroke-width="2" />
    <circle cx="260" cy="50" r="15" fill="#ef4444" opacity="0.8" />
  </g>

</svg>