<svg xmlns="http://www.w3.org/2000/svg" viewBox="0 0 1920 1080">
  <defs>
    <!-- Background Gradients -->
    <linearGradient id="bgGrad" x1="0%" y1="0%" x2="100%" y2="100%">
      <stop offset="0%" stop-color="#fff1f2" />
      <stop offset="50%" stop-color="#ffe4e6" />
      <stop offset="100%" stop-color="#fecdd3" />
    </linearGradient>
    
    <!-- Spotlight Gradients -->
    <linearGradient id="lightPink" x1="50%" y1="0%" x2="50%" y2="100%">
      <stop offset="0%" stop-color="#fb7185" stop-opacity="0.2" />
      <stop offset="100%" stop-color="#fb7185" stop-opacity="0" />
    </linearGradient>
    <linearGradient id="lightCyan" x1="50%" y1="0%" x2="50%" y2="100%">
      <stop offset="0%" stop-color="#22d3ee" stop-opacity="0.2" />
      <stop offset="100%" stop-color="#22d3ee" stop-opacity="0" />
    </linearGradient>

    <!-- Desk Gradient -->
    <linearGradient id="deskGrad" x1="0%" y1="0%" x2="0%" y2="100%">
      <stop offset="0%" stop-color="#ffffff" />
      <stop offset="10%" stop-color="#f8fafc" />
      <stop offset="100%" stop-color="#e2e8f0" />
    </linearGradient>

    <!-- Glow Filter for Screens -->
    <filter id="glow" x="-20%" y="-20%" width="140%" height="140%">
      <feGaussianBlur stdDeviation="15" result="blur" />
      <feComposite in="SourceGraphic" in2="blur" operator="over" />
    </filter>
    <filter id="shadow" x="-10%" y="-10%" width="120%" height="120%">
      <feDropShadow dx="0" dy="10" stdDeviation="10" flood-opacity="0.1" />
    </filter>
  </defs>

  <!-- 1. Studio Background -->
  <rect width="1920" height="1080" fill="url(#bgGrad)" />

  <!-- Spotlights -->
  <polygon points="400,-100 -200,1080 1000,1080" fill="url(#lightPink)" />
  <polygon points="1520,-100 920,1080 2120,1080" fill="url(#lightCyan)" />

  <!-- 2. Studio Screens & Monitors -->
  <!-- Left Screen (Shopping Cart / Pink) -->
  <g transform="translate(150, 200)">
    <rect x="0" y="0" width="450" height="280" rx="15" fill="#fff" stroke="#fb7185" stroke-width="4" filter="url(#shadow)" />
    <rect x="20" y="20" width="410" height="240" rx="5" fill="#fff1f2" />
    <text x="225" y="100" fill="#e11d48" font-family="sans-serif" font-size="35" font-weight="bold" text-anchor="middle">NEW ARRIVAL</text>
    <!-- Shopping Bag Icon -->
    <path d="M 180 150 L 160 220 L 290 220 L 270 150 Z" fill="none" stroke="#e11d48" stroke-width="6" stroke-linejoin="round" />
    <path d="M 200 150 C 200 120, 250 120, 250 150" fill="none" stroke="#e11d48" stroke-width="6" stroke-linecap="round" />
    <circle cx="225" cy="185" r="10" fill="#fb7185" />
  </g>

  <!-- Right Screen (Live Commerce / Cyan) -->
  <g transform="translate(1320, 250)">
    <rect x="0" y="0" width="450" height="280" rx="15" fill="#fff" stroke="#22d3ee" stroke-width="4" filter="url(#shadow)" />
    <rect x="20" y="20" width="410" height="240" rx="5" fill="#ecfeff" />
    <text x="225" y="100" fill="#0891b2" font-family="sans-serif" font-size="30" font-weight="bold" text-anchor="middle">LIVE COMMERCE</text>
    <!-- Chat UI Mockup -->
    <rect x="50" y="140" width="300" height="20" rx="10" fill="#cffafe" />
    <rect x="50" y="175" width="200" height="20" rx="10" fill="#cffafe" />
    <rect x="50" y="210" width="250" height="20" rx="10" fill="#cffafe" />
    <!-- Heart Icon -->
    <path d="M 360 190 C 360 190, 380 170, 390 180 C 400 190, 360 220, 360 220 C 360 220, 320 190, 330 180 C 340 170, 360 190, 360 190 Z" fill="#fb7185" />
  </g>

  <!-- Center Top Screen (Logo) -->
  <g transform="translate(710, 80)">
    <rect x="0" y="0" width="500" height="150" rx="20" fill="#fff" stroke="#cbd5e1" stroke-width="3" filter="url(#shadow)" />
    <text x="250" y="90" fill="#1e293b" font-family="sans-serif" font-size="45" font-weight="900" letter-spacing="3" text-anchor="middle">APPVERZE<tspan fill="#fb7185"> SHOP</tspan></text>
  </g>

  <!-- 3. Human Avatar (Showhost Style) -->
  <g transform="translate(960, 550)">
    <!-- Shoulders / Body -->
    <path d="M -250 450 C -250 150, -120 100, 0 100 C 120 100, 250 150, 250 450" fill="#f8fafc" stroke="#cbd5e1" stroke-width="4" filter="url(#shadow)" />
    
    <!-- Jacket/Shirt Accents -->
    <path d="M -100 450 L 0 250 L 100 450" fill="#fff" />
    <path d="M -50 450 L 0 300 L 50 450" fill="#fb7185" opacity="0.8" />

    <!-- Neck -->
    <rect x="-30" y="50" width="60" height="60" rx="10" fill="#fed7aa" />

    <!-- Head -->
    <circle cx="0" cy="-20" r="90" fill="#ffedd5" />
    
    <!-- Hair (Stylized modern cut, bright color) -->
    <path d="M -90 -20 C -90 -120, -50 -140, 0 -140 C 60 -140, 90 -100, 90 -20 C 90 -50, 60 -80, 0 -80 C -50 -80, -90 -50, -90 -20 Z" fill="#fcd34d" />
    <path d="M -100 -20 C -100 -150, 100 -150, 100 -20 C 100 -70, 50 -100, 0 -100 C -50 -100, -100 -70, -100 -20" fill="#fbbf24" />

    <!-- Wireless Mic (Showhost style) -->
    <path d="M 60 20 Q 80 40 80 80" fill="none" stroke="#94a3b8" stroke-width="4" />
    <circle cx="60" cy="20" r="6" fill="#64748b" />
  </g>

  <!-- 4. Studio Desk -->
  <path d="M 0 880 Q 960 820 1920 880 L 1920 1080 L 0 1080 Z" fill="url(#deskGrad)" />
  <!-- Desk Edge Highlight -->
  <path d="M 0 880 Q 960 820 1920 880" fill="none" stroke="#e2e8f0" stroke-width="8" />
  <path d="M 0 880 Q 960 820 1920 880" fill="none" stroke="#fb7185" stroke-width="2" opacity="0.5" filter="url(#glow)" />

  <!-- 5. Shopping Props on Desk -->
  <!-- Gift Box Left -->
  <g transform="translate(600, 850)">
    <rect x="0" y="0" width="120" height="120" fill="#22d3ee" stroke="#0891b2" stroke-width="2" />
    <rect x="-10" y="-20" width="140" height="30" fill="#06b6d4" stroke="#0891b2" stroke-width="2" />
    <rect x="50" y="-20" width="20" height="140" fill="#fef08a" />
    <!-- Ribbon -->
    <path d="M 60 -20 C 30 -50, 10 -20, 60 -20 C 90 -50, 110 -20, 60 -20" fill="#fef08a" stroke="#d97706" stroke-width="2" />
  </g>

  <!-- Product Display Stand Right -->
  <g transform="translate(1150, 880)">
    <ellipse cx="100" cy="80" rx="120" ry="30" fill="#f1f5f9" stroke="#cbd5e1" stroke-width="2" />
    <ellipse cx="100" cy="60" rx="120" ry="30" fill="#ffffff" />
    <!-- Cosmetic Bottles -->
    <rect x="40" y="-20" width="40" height="90" rx="5" fill="#fbcfe8" stroke="#f472b6" stroke-width="2" />
    <rect x="45" y="-40" width="30" height="20" rx="2" fill="#cbd5e1" />
    
    <rect x="100" y="10" width="60" height="60" rx="30" fill="#bfdbfe" stroke="#38bdf8" stroke-width="2" />
    <rect x="115" y="-10" width="30" height="20" rx="2" fill="#cbd5e1" />
  </g>

</svg>