<svg xmlns="http://www.w3.org/2000/svg" viewBox="0 0 1920 1080">
  <!-- Roblox §ņ| ®1 Dņ -->
  <g id="studioMaleRoblox" transform="translate(900, 720)">
    <!-- Ýľź -->
    <ellipse cx="0" cy="140" rx="90" ry="22" fill="#020617" opacity="0.4" />

    <!-- š¨ -->
    <rect x="-55" y="40" width="45" height="90" rx="6" fill="#1e293b" />
    <rect x="10" y="40" width="45" height="90" rx="6" fill="#020617" />

    <!-- ŗ -->
    <rect x="-60" y="122" width="55" height="18" rx="5" fill="#0f172a" />
    <rect x="5" y="122" width="55" height="18" rx="5" fill="#0b1120" />

    <!-- łĶ (źŁľ ń‹ū) -->
    <rect x="-80" y="-40" width="160" height="90" rx="10" fill="#3b82f6" />
    <!-- ń‹ H -->
    <rect x="-10" y="-38" width="4" height="32" rx="2" fill="#e5e7eb" />
    <rect x="6" y="-38" width="4" height="28" rx="2" fill="#e5e7eb" />

    <!--  -->
    <rect x="-110" y="-40" width="30" height="80" rx="8" fill="#60a5fa" />
    <rect x="80" y="-40" width="30" height="80" rx="8" fill="#60a5fa" />

    <!-- ź -->
    <rect x="-112" y="30" width="32" height="22" rx="10" fill="#fed7aa" />
    <rect x="80" y="30" width="32" height="22" rx="10" fill="#fed7aa" />

    <!-- © -->
    <rect x="-24" y="-70" width="48" height="20" rx="6" fill="#fed7aa" />

    <!-- 8¨ (]) -->
    <rect x="-40" y="-130" width="80" height="70" rx="10" fill="#fed7aa" />

    <!-- 8¨t}: źŁľ Á@ šī -->
    <path d="M -40 -130 L 40 -130 L 40 -92 Q 0 -112 -40 -92 Z" fill="#111827" />
    <path d="M -40 -130 Q -5 -152 30 -140 Q 10 -136 -18 -130 Z" fill="#020617" opacity="0.9" />

    <!-- ľt -->
    <circle cx="-15" cy="-100" r="5" fill="#0f172a" />
    <circle cx="15" cy="-100" r="5" fill="#0f172a" />
    <path d="M -10 -82 Q 0 -76 10 -82" stroke="#0f172a" stroke-width="3" fill="none" stroke-linecap="round" />
  </g>
</svg>
