<svg xmlns="http://www.w3.org/2000/svg" viewBox="0 0 1920 1080">
  <g id="desk" transform="translate(960, 560)">
    <!-- 책상 상판 -->
    <g transform="translate(0, 278)">
      <path d="M -372 26 Q 0 -20 372 26 L 372 122 L -372 122 Z" fill="#111827" />
      <path d="M -372 26 Q 0 -20 372 26" fill="none" stroke="#475569" stroke-width="6" />
      <path d="M -220 24 Q 0 2 220 24" fill="none" stroke="#fbbf24" stroke-width="3" opacity="0.6" />
      <rect x="-352" y="114" width="14" height="70" rx="7" fill="#0f172a" />
      <rect x="338" y="114" width="14" height="70" rx="7" fill="#0f172a" />
    </g>

    <!-- 컴퓨터 모니터 2개 -->
    <g id="monitors" transform="translate(0, 140)">
      <!-- 왼쪽 모니터 -->
      <g transform="translate(-160, 0)">
        <rect x="-120" y="-140" width="240" height="140" rx="14" fill="#020617" stroke="#475569" stroke-width="4" />
        <rect x="-112" y="-132" width="224" height="124" rx="10" fill="#020617" />
        <rect x="-30" y="4" width="60" height="10" rx="5" fill="#1f2937" />
        <rect x="-70" y="14" width="140" height="10" rx="5" fill="#0f172a" />
      </g>

      <!-- 오른쪽 모니터 -->
      <g transform="translate(200, 0)">
        <rect x="-120" y="-140" width="240" height="140" rx="14" fill="#020617" stroke="#475569" stroke-width="4" />
        <rect x="-112" y="-132" width="224" height="124" rx="10" fill="#020617" />
        <rect x="-30" y="4" width="60" height="10" rx="5" fill="#1f2937" />
        <rect x="-70" y="14" width="140" height="10" rx="5" fill="#0f172a" />
      </g>
    </g>
  </g>
</svg>
