<svg xmlns="http://www.w3.org/2000/svg" viewBox="0 0 1920 1080">
  <defs>
    <filter id="glow" x="-20%" y="-20%" width="140%" height="140%">
      <feGaussianBlur stdDeviation="15" result="blur" />
      <feComposite in="SourceGraphic" in2="blur" operator="over" />
    </filter>
  </defs>

  <g id="avatarPerson" transform="translate(960, 550)">
    <animateTransform attributeName="transform" type="translate" values="960 550; 960 548; 960 552; 960 550" dur="3s" repeatCount="indefinite" additive="replace" />
    <path d="M -250 450 C -250 150, -120 100, 0 100 C 120 100, 250 150, 250 450" fill="#1e293b" stroke="#334155" stroke-width="4" />
    <path d="M -100 450 L 0 250 L 100 450" fill="#0f172a" />
    <path d="M -50 450 L 0 300 L 50 450" fill="#fbbf24" opacity="0.8" />
    <rect x="-30" y="50" width="60" height="60" rx="10" fill="#cbd5e1" />
    <circle cx="0" cy="-20" r="90" fill="#e2e8f0" />
    <path d="M -90 -20 C -90 -120, -50 -140, 0 -140 C 60 -140, 90 -100, 90 -20 C 90 -50, 60 -80, 0 -80 C -50 -80, -90 -50, -90 -20 Z" fill="#0f172a" />
    <path d="M -100 -20 C -100 -150, 100 -150, 100 -20 C 100 -70, 50 -100, 0 -100 C -50 -100, -100 -70, -100 -20" fill="#1e293b" />
    <path d="M -100 -20 A 100 100 0 0 1 100 -20" fill="none" stroke="#000" stroke-width="18" />
    <rect x="-115" y="-40" width="30" height="70" rx="15" fill="#111" />
    <rect x="85" y="-40" width="30" height="70" rx="15" fill="#111" />
    <circle cx="-100" cy="-5" r="5" fill="#a855f7" filter="url(#glow)">
      <animate attributeName="opacity" values="0.7;1;0.7" dur="1.5s" repeatCount="indefinite" />
    </circle>
    <circle cx="100" cy="-5" r="5" fill="#fbbf24" filter="url(#glow)">
      <animate attributeName="opacity" values="0.7;1;0.7" dur="1.2s" repeatCount="indefinite" />
    </circle>
  </g>
</svg>
