<svg xmlns="http://www.w3.org/2000/svg" viewBox="0 0 1920 1080">
  <defs>
    <linearGradient id="bgGrad" x1="0%" y1="0%" x2="100%" y2="100%">
      <stop offset="0%" stop-color="#0b0b0f" />
      <stop offset="50%" stop-color="#1e1b4b" />
      <stop offset="100%" stop-color="#0b0b0f" />
    </linearGradient>

    <linearGradient id="lightPurple" x1="50%" y1="0%" x2="50%" y2="100%">
      <stop offset="0%" stop-color="#a855f7" stop-opacity="0.15" />
      <stop offset="100%" stop-color="#a855f7" stop-opacity="0" />
    </linearGradient>
    <linearGradient id="lightYellow" x1="50%" y1="0%" x2="50%" y2="100%">
      <stop offset="0%" stop-color="#fbbf24" stop-opacity="0.15" />
      <stop offset="100%" stop-color="#fbbf24" stop-opacity="0" />
    </linearGradient>

    <linearGradient id="deskGrad" x1="0%" y1="0%" x2="0%" y2="100%">
      <stop offset="0%" stop-color="#1e293b" />
      <stop offset="10%" stop-color="#0f172a" />
      <stop offset="100%" stop-color="#020617" />
    </linearGradient>

    <filter id="glow" x="-20%" y="-20%" width="140%" height="140%">
      <feGaussianBlur stdDeviation="15" result="blur" />
      <feComposite in="SourceGraphic" in2="blur" operator="over" />
    </filter>
  </defs>

  <rect width="1920" height="1080" fill="url(#bgGrad)" />
  <polygon points="400,-100 -200,1080 1000,1080" fill="url(#lightPurple)" />
  <polygon points="1520,-100 920,1080 2120,1080" fill="url(#lightYellow)" />

  <g transform="translate(150, 200)">
    <rect x="0" y="0" width="450" height="280" rx="15" fill="#000" stroke="#a855f7" stroke-width="4" filter="url(#glow)" />
    <rect x="20" y="20" width="410" height="240" rx="5" fill="#111" />
    <text x="225" y="120" fill="#a855f7" font-family="sans-serif" font-size="40" font-weight="bold" text-anchor="middle" opacity="0.8">ON AIR</text>
    <path d="M 100 200 L 120 150 L 140 180 L 160 100 L 180 190 L 200 130 L 220 210 L 240 160 L 260 180 L 280 120 L 300 190 L 320 140 L 340 170" fill="none" stroke="#a855f7" stroke-width="6" stroke-linecap="round" stroke-linejoin="round" stroke-dasharray="400" stroke-dashoffset="400">
      <animate attributeName="stroke-dashoffset" from="400" to="0" dur="1.5s" repeatCount="indefinite" />
      <animate attributeName="opacity" values="0.6;1;0.6" dur="2s" repeatCount="indefinite" />
    </path>
  </g>

  <g transform="translate(1320, 250)">
    <rect x="0" y="0" width="450" height="280" rx="15" fill="#000" stroke="#fbbf24" stroke-width="4" filter="url(#glow)" />
    <rect x="20" y="20" width="410" height="240" rx="5" fill="#111" />
    <text x="225" y="100" fill="#fbbf24" font-family="sans-serif" font-size="30" font-weight="bold" text-anchor="middle" opacity="0.8">LIVE CHAT</text>
    <rect x="50" y="140" width="300" height="15" rx="7" fill="#333" />
    <rect x="50" y="170" width="200" height="15" rx="7" fill="#333" />
    <rect x="50" y="200" width="250" height="15" rx="7" fill="#333" />
  </g>

  <g transform="translate(710, 80)">
    <rect x="0" y="0" width="500" height="150" rx="10" fill="#000" stroke="#334155" stroke-width="3" />
    <text x="250" y="90" fill="#fff" font-family="sans-serif" font-size="50" font-weight="900" letter-spacing="5" text-anchor="middle">APPVERZE<tspan fill="#fbbf24">.</tspan></text>
  </g>

  <path d="M 0 880 Q 960 820 1920 880 L 1920 1080 L 0 1080 Z" fill="url(#deskGrad)" />
  <path d="M 0 880 Q 960 820 1920 880" fill="none" stroke="#334155" stroke-width="8" />
  <path d="M 0 880 Q 960 820 1920 880" fill="none" stroke="#a855f7" stroke-width="2" opacity="0.5" filter="url(#glow)" />
</svg>
