<svg xmlns="http://www.w3.org/2000/svg" viewBox="0 0 1920 1080">
  <!-- Roblox §¿| Ï1 D¿ -->
  <g id="studioFemaleRoblox" transform="translate(1120, 720)">
    <!-- ¯ºê -->
    <ellipse cx="0" cy="140" rx="90" ry="22" fill="#020617" opacity="0.4" />

    <!-- ‰¨ -->
    <rect x="-55" y="40" width="45" height="90" rx="6" fill="#312e81" />
    <rect x="10" y="40" width="45" height="90" rx="6" fill="#1e1b4b" />

    <!-- ‡ -->
    <rect x="-60" y="122" width="55" height="18" rx="5" fill="#111827" />
    <rect x="5" y="122" width="55" height="18" rx="5" fill="#0b1120" />

    <!-- ∏µ (ê¸º lm ƒ‹/§Ë0 êå) -->
    <rect x="-80" y="-40" width="160" height="90" rx="10" fill="#ec4899" />
    <!-- L| §∏|t -->
    <rect x="-80" y="-10" width="160" height="8" fill="#f9a8d4" opacity="0.9" />

    <!--  -->
    <rect x="-110" y="-40" width="30" height="80" rx="8" fill="#f472b6" />
    <rect x="80" y="-40" width="30" height="80" rx="8" fill="#f472b6" />

    <!-- ê -->
    <rect x="-112" y="30" width="32" height="22" rx="10" fill="#fed7aa" />
    <rect x="80" y="30" width="32" height="22" rx="10" fill="#fed7aa" />

    <!-- © -->
    <rect x="-24" y="-70" width="48" height="20" rx="6" fill="#fed7aa" />

    <!-- 8¨ (]) -->
    <rect x="-40" y="-130" width="80" height="70" rx="10" fill="#fed7aa" />

    <!-- 8¨t}: ê¸º q ‰¥ -->
    <path d="M -40 -130 L 40 -130 L 40 -80 Q 0 -105 -40 -80 Z" fill="#1f2937" />
    <path d="M -40 -120 C -60 -80, -40 -40, -10 -20 L 0 -32 C -20 -46, -28 -76, -22 -104 Z" fill="#111827" />
    <path d="M 40 -120 C 60 -80, 40 -40, 10 -20 L 0 -32 C 20 -46, 28 -76, 22 -104 Z" fill="#111827" />

    <!-- ºt -->
    <circle cx="-15" cy="-100" r="4.5" fill="#0f172a" />
    <circle cx="15" cy="-100" r="4.5" fill="#0f172a" />
    <path d="M -10 -82 Q 0 -78 10 -82" stroke="#9f1239" stroke-width="3" fill="none" stroke-linecap="round" />
  </g>
</svg>
