<svg xmlns="http://www.w3.org/2000/svg" viewBox="0 0 1920 1080">
  <defs>
    <filter id="shadowSoft" x="-50%" y="-50%" width="200%" height="200%">
      <feDropShadow dx="0" dy="10" stdDeviation="10" flood-color="#020617" flood-opacity="0.42" />
    </filter>
  </defs>

  <g id="avatarPerson" transform="translate(960, 560)">

    <g id="studioProps" filter="url(#shadowSoft)">
      <g id="leftChair" transform="translate(-360, 160)">
        <rect x="-30" y="-82" width="60" height="64" rx="14" fill="#334155" />
        <rect x="-22" y="-28" width="44" height="36" rx="10" fill="#1e293b" />
        <rect x="-25" y="8" width="8" height="56" rx="4" fill="#0f172a" />
        <rect x="17" y="8" width="8" height="56" rx="4" fill="#0f172a" />
      </g>

      <g id="rightChair" transform="translate(360, 160)">
        <rect x="-30" y="-82" width="60" height="64" rx="14" fill="#4c1d95" />
        <rect x="-22" y="-28" width="44" height="36" rx="10" fill="#5b21b6" />
        <rect x="-25" y="8" width="8" height="56" rx="4" fill="#312e81" />
        <rect x="17" y="8" width="8" height="56" rx="4" fill="#312e81" />
      </g>

      <g id="desk" transform="translate(0, 278)">
        <path d="M -372 26 Q 0 -20 372 26 L 372 122 L -372 122 Z" fill="#111827" />
        <path d="M -372 26 Q 0 -20 372 26" fill="none" stroke="#475569" stroke-width="6" />
        <path d="M -220 24 Q 0 2 220 24" fill="none" stroke="#fbbf24" stroke-width="3" opacity="0.6" />
        <rect x="-352" y="114" width="14" height="70" rx="7" fill="#0f172a" />
        <rect x="338" y="114" width="14" height="70" rx="7" fill="#0f172a" />
      </g>

      <g id="studioCamera" transform="translate(0, 130)">
        <path d="M 0 24 L -26 198 M 0 24 L 20 198 M 0 24 L 64 198" stroke="#334155" stroke-width="8" stroke-linecap="round" />
        <rect x="-48" y="-40" width="100" height="62" rx="12" fill="#1e293b" stroke="#475569" stroke-width="4" />
        <rect x="-78" y="-24" width="30" height="24" rx="6" fill="#0f172a" />
        <circle cx="26" cy="-8" r="18" fill="#0f172a" stroke="#64748b" stroke-width="4" />
        <circle cx="26" cy="-8" r="8" fill="#38bdf8" opacity="0.85" />
        <rect x="-20" y="-54" width="34" height="12" rx="5" fill="#ef4444" />
      </g>

      <g id="videoCameraBack" transform="translate(250, 145)">
        <path d="M 0 20 L -18 148 M 0 20 L 16 148 M 0 20 L 44 148" stroke="#334155" stroke-width="7" stroke-linecap="round" />
        <rect x="-36" y="-26" width="82" height="50" rx="10" fill="#1f2937" stroke="#475569" stroke-width="3" />
        <circle cx="20" cy="-2" r="14" fill="#0f172a" stroke="#64748b" stroke-width="3" />
        <circle cx="20" cy="-2" r="6" fill="#67e8f9" opacity="0.85" />
        <rect x="-12" y="-40" width="26" height="9" rx="4" fill="#ef4444" />
      </g>
    </g>

    <ellipse cx="-160" cy="360" rx="95" ry="22" fill="#020617" opacity="0.28" />
    <ellipse cx="170" cy="360" rx="95" ry="22" fill="#020617" opacity="0.28" />

    <g id="maleWalker" transform="translate(-170, 120)" filter="url(#shadowSoft)">
      <animateTransform attributeName="transform" type="translate" values="-260 120; 260 120" dur="5.8s" repeatCount="indefinite" />
      <animateTransform attributeName="transform" type="translate" values="0 0; 0 -4; 0 0; 0 4; 0 0" dur="0.9s" repeatCount="indefinite" additive="sum" />

      <g id="maleHead">
        <circle cx="0" cy="-110" r="40" fill="#f2c8a8" />
        <path d="M -42 -118 C -35 -160, 35 -160, 42 -116 C 26 -130, -26 -130, -42 -118 Z" fill="#111827" />
        <path d="M -44 -113 A 44 44 0 0 1 44 -113" fill="none" stroke="#0f172a" stroke-width="10" />
        <rect x="-52" y="-120" width="12" height="34" rx="6" fill="#0f172a" />
        <rect x="40" y="-120" width="12" height="34" rx="6" fill="#0f172a" />
        <line x1="-20" y1="-116" x2="-8" y2="-118" stroke="#7c3f2a" stroke-width="2.5" stroke-linecap="round" />
        <line x1="8" y1="-118" x2="20" y2="-116" stroke="#7c3f2a" stroke-width="2.5" stroke-linecap="round" />
        <ellipse cx="-13" cy="-106" rx="4" ry="4.5" fill="#111827" />
        <ellipse cx="13" cy="-106" rx="4" ry="4.5" fill="#111827" />
        <circle cx="-14" cy="-107" r="1.2" fill="#f8fafc" />
        <circle cx="12" cy="-107" r="1.2" fill="#f8fafc" />
        <path d="M -1 -100 Q 3 -95 0 -90" fill="none" stroke="#a55f42" stroke-width="2" stroke-linecap="round" />
        <path d="M -11 -82 Q 0 -76 11 -82" fill="none" stroke="#7c2d12" stroke-width="2.8" stroke-linecap="round" />
      </g>

      <rect x="-26" y="-70" width="52" height="72" rx="16" fill="#1e293b" />
      <rect x="-8" y="-76" width="16" height="18" rx="6" fill="#f2c8a8" />

      <g transform="translate(-24,-44)">
        <rect x="0" y="0" width="12" height="52" rx="6" fill="#334155">
          <animateTransform attributeName="transform" type="rotate" values="22 6 0; -22 6 0; 22 6 0" dur="0.9s" repeatCount="indefinite" />
        </rect>
      </g>
      <g transform="translate(12,-44)">
        <rect x="0" y="0" width="12" height="52" rx="6" fill="#334155">
          <animateTransform attributeName="transform" type="rotate" values="-22 6 0; 22 6 0; -22 6 0" dur="0.9s" repeatCount="indefinite" />
        </rect>
      </g>

      <g transform="translate(-16,2)">
        <rect x="0" y="0" width="14" height="74" rx="7" fill="#0f172a">
          <animateTransform attributeName="transform" type="rotate" values="-22 7 0; 24 7 0; -22 7 0" dur="0.9s" repeatCount="indefinite" />
        </rect>
        <rect x="-4" y="72" width="22" height="10" rx="5" fill="#111827" />
      </g>
      <g transform="translate(2,2)">
        <rect x="0" y="0" width="14" height="74" rx="7" fill="#0f172a">
          <animateTransform attributeName="transform" type="rotate" values="24 7 0; -22 7 0; 24 7 0" dur="0.9s" repeatCount="indefinite" />
        </rect>
        <rect x="-4" y="72" width="22" height="10" rx="5" fill="#111827" />
      </g>
    </g>

    <g id="femaleWalker" transform="translate(0, 0)" filter="url(#shadowSoft)">
      <animateMotion dur="6.2s" begin="0.28s" repeatCount="indefinite" rotate="0"
        path="M 150 124 A 62 62 0 1 1 149.9 124 L 360 124" />
      <animateTransform attributeName="transform" type="translate" values="0 0; 0 4; 0 0; 0 -4; 0 0" dur="0.9s" begin="0.28s" repeatCount="indefinite" additive="sum" />

      <g id="femaleHead">
        <circle cx="0" cy="-112" r="38" fill="#f5cfb4" />
        <path d="M -44 -130 C -30 -170, 30 -170, 44 -128 C 24 -145, -24 -145, -44 -130 Z" fill="#1f2937" />
        <path d="M -40 -122 C -54 -90, -46 -42, -16 -26 L -8 -36 C -30 -48, -34 -88, -24 -116 Z" fill="#1f2937" />
        <path d="M 40 -122 C 54 -90, 46 -42, 16 -26 L 8 -36 C 30 -48, 34 -88, 24 -116 Z" fill="#1f2937" />
        <line x1="-18" y1="-120" x2="-6" y2="-121" stroke="#8b4a2e" stroke-width="2.2" stroke-linecap="round" />
        <line x1="6" y1="-121" x2="18" y2="-120" stroke="#8b4a2e" stroke-width="2.2" stroke-linecap="round" />
        <ellipse cx="-10" cy="-110" rx="3.8" ry="4.3" fill="#111827" />
        <ellipse cx="10" cy="-110" rx="3.8" ry="4.3" fill="#111827" />
        <circle cx="-11" cy="-111" r="1.1" fill="#f8fafc" />
        <circle cx="9" cy="-111" r="1.1" fill="#f8fafc" />
        <path d="M -1 -103 Q 2 -99 0 -95" fill="none" stroke="#af6a4b" stroke-width="1.8" stroke-linecap="round" />
        <path d="M -10 -86 Q 0 -80 10 -86" fill="none" stroke="#9d174d" stroke-width="2.4" stroke-linecap="round" />
      </g>

      <rect x="-24" y="-70" width="48" height="70" rx="14" fill="#7c3aed" />
      <rect x="-8" y="-76" width="16" height="16" rx="6" fill="#f5cfb4" />

      <g transform="translate(-22,-42)">
        <rect x="0" y="0" width="11" height="48" rx="6" fill="#6d28d9">
          <animateTransform attributeName="transform" type="rotate" values="-24 5.5 0; 20 5.5 0; -24 5.5 0" dur="0.9s" begin="0.28s" repeatCount="indefinite" />
        </rect>
      </g>
      <g transform="translate(11,-42)">
        <rect x="0" y="0" width="11" height="48" rx="6" fill="#6d28d9">
          <animateTransform attributeName="transform" type="rotate" values="20 5.5 0; -24 5.5 0; 20 5.5 0" dur="0.9s" begin="0.28s" repeatCount="indefinite" />
        </rect>
      </g>

      <g transform="translate(-14,0)">
        <rect x="0" y="0" width="13" height="72" rx="7" fill="#312e81">
          <animateTransform attributeName="transform" type="rotate" values="22 6.5 0; -24 6.5 0; 22 6.5 0" dur="0.9s" begin="0.28s" repeatCount="indefinite" />
        </rect>
        <rect x="-4" y="70" width="22" height="10" rx="5" fill="#111827" />
      </g>
      <g transform="translate(1,0)">
        <rect x="0" y="0" width="13" height="72" rx="7" fill="#312e81">
          <animateTransform attributeName="transform" type="rotate" values="-24 6.5 0; 22 6.5 0; -24 6.5 0" dur="0.9s" begin="0.28s" repeatCount="indefinite" />
        </rect>
        <rect x="-4" y="70" width="22" height="10" rx="5" fill="#111827" />
      </g>
    </g>
  </g>
</svg>
